<?xml version="1.0" encoding="UTF-8"?>
<svg width="1600" height="1200" xmlns="http://www.w3.org/2000/svg" xmlns:xlink="http://www.w3.org/1999/xlink"><rect width="1600" height="1200" fill="#f5f5f5" /><text x="800" y="50" font-size="32" font-weight="bold" text-anchor="middle" fill="#232F3E">AWS Serverless RAG System Architecture</text><text x="800" y="85" font-size="18" text-anchor="middle" fill="#666">Current Implementation with OpenSearch</text><g id="frontend"><rect x="100" y="150" width="250" height="100" fill="#FF9900" stroke="#000" stroke-width="2" rx="10" /><text x="225" y="190" font-size="18" font-weight="bold" text-anchor="middle" fill="white">React Frontend</text><text x="225" y="220" font-size="14" text-anchor="middle" fill="white">TypeScript + Tailwind CSS</text></g><g id="api-gateway"><rect x="650" y="150" width="300" height="100" fill="#146EB4" stroke="#000" stroke-width="2" rx="10" /><text x="800" y="190" font-size="18" font-weight="bold" text-anchor="middle" fill="white">API Gateway</text><text x="800" y="220" font-size="14" text-anchor="middle" fill="white">REST API with CORS</text></g><g id="lambda-upload"><rect x="150" y="350" width="150" height="80" fill="#F68D11" stroke="#000" stroke-width="2" rx="8" /><text x="225" y="380" font-size="14" font-weight="bold" text-anchor="middle" fill="white">Upload</text><text x="225" y="405" font-size="11" text-anchor="middle" fill="white">File Upload</text></g><g id="lambda-process"><rect x="350" y="350" width="150" height="80" fill="#F68D11" stroke="#000" stroke-width="2" rx="8" /><text x="425" y="380" font-size="14" font-weight="bold" text-anchor="middle" fill="white">Process</text><text x="425" y="405" font-size="11" text-anchor="middle" fill="white">Text Extract</text></g><g id="lambda-query"><rect x="550" y="350" width="150" height="80" fill="#F68D11" stroke="#000" stroke-width="2" rx="8" /><text x="625" y="380" font-size="14" font-weight="bold" text-anchor="middle" fill="white">Query</text><text x="625" y="405" font-size="11" text-anchor="middle" fill="white">RAG Query</text></g><g id="lambda-dashboard"><rect x="750" y="350" width="150" height="80" fill="#F68D11" stroke="#000" stroke-width="2" rx="8" /><text x="825" y="380" font-size="14" font-weight="bold" text-anchor="middle" fill="white">Dashboard</text><text x="825" y="405" font-size="11" text-anchor="middle" fill="white">Statistics</text></g><g id="lambda-status"><rect x="950" y="350" width="150" height="80" fill="#F68D11" stroke="#000" stroke-width="2" rx="8" /><text x="1025" y="380" font-size="14" font-weight="bold" text-anchor="middle" fill="white">Status</text><text x="1025" y="405" font-size="11" text-anchor="middle" fill="white">Doc Status</text></g><g id="lambda-delete"><rect x="1150" y="350" width="150" height="80" fill="#F68D11" stroke="#000" stroke-width="2" rx="8" /><text x="1225" y="380" font-size="14" font-weight="bold" text-anchor="middle" fill="white">Delete</text><text x="1225" y="405" font-size="11" text-anchor="middle" fill="white">Doc Delete</text></g><g id="s3"><rect x="100" y="550" width="200" height="100" fill="#569A31" stroke="#000" stroke-width="2" rx="10" /><text x="200" y="590" font-size="16" font-weight="bold" text-anchor="middle" fill="white">S3 Bucket</text><text x="200" y="620" font-size="12" text-anchor="middle" fill="white">Document Storage</text></g><g id="dynamodb"><rect x="350" y="550" width="200" height="100" fill="#569A31" stroke="#000" stroke-width="2" rx="10" /><text x="450" y="590" font-size="16" font-weight="bold" text-anchor="middle" fill="white">DynamoDB</text><text x="450" y="620" font-size="12" text-anchor="middle" fill="white">Document Metadata</text></g><g id="opensearch"><rect x="600" y="550" width="300" height="100" fill="#005276" stroke="#000" stroke-width="2" rx="10" /><text x="750" y="590" font-size="16" font-weight="bold" text-anchor="middle" fill="white">OpenSearch Service</text><text x="750" y="620" font-size="12" text-anchor="middle" fill="white">Vector Search (t3.small)</text></g><g id="cloudwatch"><rect x="950" y="550" width="200" height="100" fill="#759C3E" stroke="#000" stroke-width="2" rx="10" /><text x="1050" y="590" font-size="16" font-weight="bold" text-anchor="middle" fill="white">CloudWatch</text><text x="1050" y="620" font-size="12" text-anchor="middle" fill="white">Logs &amp; Metrics</text></g><g id="bedrock"><rect x="400" y="750" width="800" height="120" fill="#9D5FA6" stroke="#000" stroke-width="2" rx="10" /><text x="800" y="790" font-size="20" font-weight="bold" text-anchor="middle" fill="white">Amazon Bedrock</text><text x="600" y="830" font-size="14" text-anchor="middle" fill="white">Titan Embeddings V1</text><text x="1000" y="830" font-size="14" text-anchor="middle" fill="white">Claude 3 Sonnet</text><text x="800" y="855" font-size="11" text-anchor="middle" fill="white" font-style="italic">(1536-dimensional vectors)</text></g><defs><marker id="arrowhead" markerWidth="10" markerHeight="7" refX="10" refY="3.5" orient="auto"><polygon points="0 0, 10 3.5, 0 7" fill="#333" /></marker></defs><line x1="350" y1="200" x2="650" y2="200" stroke="#333" stroke-width="2" marker-end="url(#arrowhead)" /><rect x="460.0" y="190.0" width="80" height="20" fill="white" stroke="#333" stroke-width="1" rx="3" /><text x="500.0" y="205.0" font-size="10" text-anchor="middle" fill="#333">HTTPS</text><line x1="800" y1="250" x2="225" y2="350" stroke="#333" stroke-width="2" marker-end="url(#arrowhead)" /><line x1="800" y1="250" x2="425" y2="350" stroke="#333" stroke-width="2" marker-end="url(#arrowhead)" /><line x1="800" y1="250" x2="625" y2="350" stroke="#333" stroke-width="2" marker-end="url(#arrowhead)" /><line x1="800" y1="250" x2="825" y2="350" stroke="#333" stroke-width="2" marker-end="url(#arrowhead)" /><line x1="800" y1="250" x2="1025" y2="350" stroke="#333" stroke-width="2" marker-end="url(#arrowhead)" /><line x1="800" y1="250" x2="1225" y2="350" stroke="#333" stroke-width="2" marker-end="url(#arrowhead)" /><line x1="225" y1="430" x2="200" y2="550" stroke="#333" stroke-width="2" marker-end="url(#arrowhead)" /><line x1="425" y1="430" x2="200" y2="550" stroke="#333" stroke-width="2" marker-end="url(#arrowhead)" /><line x1="425" y1="430" x2="450" y2="550" stroke="#333" stroke-width="2" marker-end="url(#arrowhead)" /><line x1="425" y1="430" x2="750" y2="550" stroke="#333" stroke-width="2" marker-end="url(#arrowhead)" /><line x1="625" y1="430" x2="750" y2="550" stroke="#333" stroke-width="2" marker-end="url(#arrowhead)" /><line x1="825" y1="430" x2="200" y2="550" stroke="#333" stroke-width="2" marker-end="url(#arrowhead)" /><line x1="825" y1="430" x2="750" y2="550" stroke="#333" stroke-width="2" marker-end="url(#arrowhead)" /><line x1="1025" y1="430" x2="750" y2="550" stroke="#333" stroke-width="2" marker-end="url(#arrowhead)" /><line x1="1225" y1="430" x2="200" y2="550" stroke="#333" stroke-width="2" marker-end="url(#arrowhead)" /><line x1="1225" y1="430" x2="450" y2="550" stroke="#333" stroke-width="2" marker-end="url(#arrowhead)" /><line x1="825" y1="430" x2="1050" y2="550" stroke="#333" stroke-width="2" marker-end="url(#arrowhead)" /><line x1="425" y1="430" x2="600" y2="750" stroke="#333" stroke-width="2" marker-end="url(#arrowhead)" /><line x1="625" y1="430" x2="1000" y2="750" stroke="#333" stroke-width="2" marker-end="url(#arrowhead)" /><g id="features"><rect x="50" y="950" width="1500" height="180" fill="white" stroke="#333" stroke-width="2" rx="10" /><text x="800" y="980" font-size="18" font-weight="bold" text-anchor="middle" fill="#232F3E">System Specifications</text><text x="200" y="1010" font-size="14" font-weight="bold" text-anchor="middle" fill="#146EB4">Lambda Functions</text><text x="200" y="1035" font-size="11" text-anchor="middle" fill="#333">• 6 Functions (Go)</text><text x="200" y="1055" font-size="11" text-anchor="middle" fill="#333">• provided.al2023 runtime</text><text x="200" y="1075" font-size="11" text-anchor="middle" fill="#333">• 512MB Memory</text><text x="200" y="1095" font-size="11" text-anchor="middle" fill="#333">• 30s-300s Timeout</text><text x="500" y="1010" font-size="14" font-weight="bold" text-anchor="middle" fill="#146EB4">Storage</text><text x="500" y="1035" font-size="11" text-anchor="middle" fill="#333">• S3 with Versioning</text><text x="500" y="1055" font-size="11" text-anchor="middle" fill="#333">• DynamoDB Pay-per-request</text><text x="500" y="1075" font-size="11" text-anchor="middle" fill="#333">• CloudWatch 14-day retention</text><text x="800" y="1010" font-size="14" font-weight="bold" text-anchor="middle" fill="#146EB4">Search</text><text x="800" y="1035" font-size="11" text-anchor="middle" fill="#333">• OpenSearch 2.3</text><text x="800" y="1055" font-size="11" text-anchor="middle" fill="#333">• t3.small instance</text><text x="800" y="1075" font-size="11" text-anchor="middle" fill="#333">• 10GB gp3 storage</text><text x="800" y="1095" font-size="11" text-anchor="middle" fill="#333">• KNN Vector Search</text><text x="1100" y="1010" font-size="14" font-weight="bold" text-anchor="middle" fill="#146EB4">AI/ML</text><text x="1100" y="1035" font-size="11" text-anchor="middle" fill="#333">• Titan Embeddings V1</text><text x="1100" y="1055" font-size="11" text-anchor="middle" fill="#333">• Claude 3 Sonnet</text><text x="1100" y="1075" font-size="11" text-anchor="middle" fill="#333">• 1536-dim vectors</text><text x="1100" y="1095" font-size="11" text-anchor="middle" fill="#333">• RAG Generation</text><text x="1400" y="1010" font-size="14" font-weight="bold" text-anchor="middle" fill="#146EB4">API</text><text x="1400" y="1035" font-size="11" text-anchor="middle" fill="#333">• REST API</text><text x="1400" y="1055" font-size="11" text-anchor="middle" fill="#333">• CORS Enabled</text><text x="1400" y="1075" font-size="11" text-anchor="middle" fill="#333">• OpenAPI 3.0.1</text><text x="1400" y="1095" font-size="11" text-anchor="middle" fill="#333">• Multiple Endpoints</text></g></svg>